<svg width="14" height="16" viewBox="0 0 14 16" fill="none" xmlns="http://www.w3.org/2000/svg">
<path fill-rule="evenodd" clip-rule="evenodd" d="M6.73334 11.2666C6.66668 11.2666 6.60001 11.2 6.53334 11.1333L3.86668 8.46663C3.60001 8.19996 3.60001 7.79996 3.86668 7.53329C4.13334 7.26663 4.53334 7.26663 4.80001 7.53329L6.33334 9.06663V1.33329C6.33334 0.933293 6.60001 0.666626 7.00001 0.666626C7.40001 0.666626 7.66668 0.933293 7.66668 1.33329V9.06663L9.20001 7.53329C9.46668 7.26663 9.86668 7.26663 10.1333 7.53329C10.4 7.79996 10.4 8.19996 10.1333 8.46663L7.46668 11.1333C7.43334 11.1666 7.40001 11.1833 7.36668 11.2C7.33334 11.2166 7.30001 11.2333 7.26668 11.2666C7.20001 11.3333 7.06668 11.3333 7.00001 11.3333C6.93334 11.3333 6.80001 11.3333 6.73334 11.2666ZM13.6667 13.3333V11.3333C13.6667 10.9333 13.4 10.6666 13 10.6666C12.6 10.6666 12.3333 10.9333 12.3333 11.3333V13.3333C12.3333 13.7333 12.0667 14 11.6667 14H2.33334C1.93334 14 1.66668 13.7333 1.66668 13.3333V11.3333C1.66668 10.9333 1.40001 10.6666 1.00001 10.6666C0.60001 10.6666 0.333344 10.9333 0.333344 11.3333V13.3333C0.333344 14.4666 1.20001 15.3333 2.33334 15.3333H11.6667C12.8 15.3333 13.6667 14.4666 13.6667 13.3333Z" fill="#2962FF"/>
</svg>
